<svg xmlns="http://www.w3.org/2000/svg" height="797pt" version="1.1" viewBox="0 -38 797.49993 797" width="797pt">
<g id="surface1">
<path d="M 773.964844 673.832031 L 23.535156 673.832031 C 10.539062 673.832031 0 684.371094 0 697.371094 C 0 710.367188 10.539062 720.902344 23.535156 720.902344 L 773.964844 720.902344 C 786.960938 720.902344 797.5 710.367188 797.5 697.371094 C 797.5 684.371094 786.960938 673.832031 773.964844 673.832031 Z M 773.964844 673.832031 " style=" stroke:none;fill-rule:nonzero;fill:rgb(0%,0%,0%);fill-opacity:1;" />
<path d="M 257.640625 325.257812 C 257.640625 312.246094 247.113281 301.722656 234.105469 301.722656 L 82.453125 301.722656 C 69.453125 301.722656 58.910156 312.246094 58.910156 325.257812 L 58.910156 626.765625 L 257.640625 626.765625 Z M 257.640625 325.257812 " style=" stroke:none;fill-rule:nonzero;fill:rgb(0%,0%,0%);fill-opacity:1;" />
<path d="M 498.121094 439.363281 C 498.121094 426.375 487.578125 415.832031 474.589844 415.832031 L 322.910156 415.832031 C 309.921875 415.832031 299.378906 426.375 299.378906 439.363281 L 299.378906 626.765625 L 498.121094 626.765625 Z M 498.121094 439.363281 " style=" stroke:none;fill-rule:nonzero;fill:rgb(0%,0%,0%);fill-opacity:1;" />
<path d="M 738.589844 206.980469 C 738.589844 193.988281 728.046875 183.441406 715.046875 183.441406 L 563.394531 183.441406 C 550.386719 183.441406 539.859375 193.988281 539.859375 206.980469 L 539.859375 626.765625 L 738.589844 626.765625 Z M 738.589844 206.980469 " style=" stroke:none;fill-rule:nonzero;fill:rgb(0%,0%,0%);fill-opacity:1;" />

</g>
</svg>